<svg width="48" height="48" viewBox="0 0 48 48" fill="none" xmlns="http://www.w3.org/2000/svg">
<rect width="48" height="48" fill="#323238"/>
<path d="M20.4698 31.8804C20.4698 31.9825 20.3524 32.0641 20.2043 32.0641C20.0359 32.0795 19.9184 31.9978 19.9184 31.8804C19.9184 31.7782 20.0359 31.6966 20.1839 31.6966C20.3371 31.6812 20.4698 31.7629 20.4698 31.8804ZM18.8821 31.6506C18.8463 31.7527 18.9484 31.8701 19.1016 31.9008C19.2343 31.9518 19.3875 31.9008 19.4181 31.7987C19.4488 31.6966 19.3517 31.5791 19.1986 31.5332C19.0658 31.4974 18.9178 31.5485 18.8821 31.6506ZM21.1386 31.5638C20.9906 31.5996 20.8885 31.6966 20.9038 31.814C20.9191 31.9161 21.0518 31.9825 21.205 31.9467C21.3531 31.911 21.4552 31.814 21.4398 31.7119C21.4245 31.6149 21.2867 31.5485 21.1386 31.5638ZM24.498 12C17.4168 12 12 17.376 12 24.4571C12 30.119 15.5636 34.964 20.6536 36.6692C21.3071 36.7866 21.5369 36.3833 21.5369 36.0514C21.5369 35.7349 21.5215 33.9889 21.5215 32.9167C21.5215 32.9167 17.9478 33.6825 17.1973 31.3953C17.1973 31.3953 16.6153 29.9097 15.778 29.5268C15.778 29.5268 14.6088 28.7252 15.8597 28.7405C15.8597 28.7405 17.1309 28.8427 17.8303 30.0577C18.9484 32.0284 20.8221 31.4617 21.5522 31.1248C21.6696 30.3079 22.0014 29.7412 22.369 29.4042C19.5151 29.0877 16.6357 28.6742 16.6357 23.7628C16.6357 22.3588 17.0237 21.6543 17.8406 20.7557C17.7078 20.4239 17.2739 19.0556 17.9733 17.2892C19.0403 16.9573 21.496 18.6676 21.496 18.6676C22.5171 18.3817 23.6147 18.2337 24.7022 18.2337C25.7896 18.2337 26.8873 18.3817 27.9084 18.6676C27.9084 18.6676 30.3641 16.9522 31.4311 17.2892C32.1305 19.0607 31.6966 20.4239 31.5638 20.7557C32.3807 21.6594 32.881 22.3639 32.881 23.7628C32.881 28.6895 29.8739 29.0826 27.02 29.4042C27.4897 29.8076 27.8879 30.5734 27.8879 31.7731C27.8879 33.4937 27.8726 35.6226 27.8726 36.0412C27.8726 36.3731 28.1075 36.7764 28.7559 36.659C33.8612 34.964 37.3227 30.119 37.3227 24.4571C37.3227 17.376 31.5791 12 24.498 12ZM16.9624 29.6085C16.8961 29.6595 16.9114 29.7769 16.9982 29.8739C17.0799 29.9556 17.1973 29.9914 17.2636 29.925C17.33 29.8739 17.3147 29.7565 17.2279 29.6595C17.1462 29.5778 17.0288 29.5421 16.9624 29.6085ZM16.411 29.1949C16.3753 29.2613 16.4264 29.343 16.5285 29.394C16.6102 29.4451 16.7123 29.4298 16.748 29.3583C16.7837 29.2919 16.7327 29.2102 16.6306 29.1592C16.5285 29.1286 16.4468 29.1439 16.411 29.1949ZM18.0652 31.0124C17.9835 31.0788 18.0141 31.232 18.1316 31.329C18.249 31.4464 18.397 31.4617 18.4634 31.38C18.5298 31.3137 18.4991 31.1605 18.397 31.0635C18.2847 30.9461 18.1316 30.9307 18.0652 31.0124ZM17.4832 30.2619C17.4015 30.313 17.4015 30.4457 17.4832 30.5632C17.5649 30.6806 17.7027 30.7316 17.7691 30.6806C17.8508 30.6142 17.8508 30.4815 17.7691 30.3641C17.6976 30.2466 17.5649 30.1956 17.4832 30.2619Z" fill="white"/>
</svg>
