<svg width="48" height="48" viewBox="0 0 48 48" fill="none" xmlns="http://www.w3.org/2000/svg">
<rect width="48" height="48" fill="#323238"/>
<path d="M34.9264 12H13.7581C12.7881 12 12 12.7991 12 13.7801V34.9099C12 35.8909 12.7881 36.69 13.7581 36.69H34.9264C35.8964 36.69 36.69 35.8909 36.69 34.9099V13.7801C36.69 12.7991 35.8964 12 34.9264 12ZM19.4621 33.1629H15.8027V21.38H19.4676V33.1629H19.4621ZM17.6324 19.7707C16.4585 19.7707 15.5106 18.8173 15.5106 17.6489C15.5106 16.4806 16.4585 15.5271 17.6324 15.5271C18.8008 15.5271 19.7542 16.4806 19.7542 17.6489C19.7542 18.8228 18.8063 19.7707 17.6324 19.7707V19.7707ZM33.1794 33.1629H29.52V27.4313C29.52 26.0645 29.4924 24.3064 27.6186 24.3064C25.7118 24.3064 25.4197 25.7944 25.4197 27.3321V33.1629H21.7603V21.38H25.2709V22.9893H25.3205C25.811 22.0634 27.0069 21.0879 28.787 21.0879C32.4905 21.0879 33.1794 23.5293 33.1794 26.7038V33.1629V33.1629Z" fill="white"/>
</svg>
